<svg width="41" height="40" viewBox="0 0 41 40" fill="none" xmlns="http://www.w3.org/2000/svg">
<path d="M12.7739 15.3058C12.0639 14.5957 12.0639 13.4445 12.7739 12.7345C13.484 12.0245 14.6352 12.0245 15.3452 12.7345L20.05 17.4393L24.75 12.7393C25.4602 12.0292 26.6113 12.0292 27.3213 12.7393C28.0315 13.4493 28.0315 14.6005 27.3213 15.3106L22.6213 20.0106L27.3195 24.7086C28.0295 25.4188 28.0295 26.5699 27.3195 27.2799C26.6093 27.9901 25.4582 27.9901 24.748 27.2799L20.05 22.5819L15.3505 27.2815C14.6405 27.9915 13.4892 27.9915 12.7792 27.2815C12.0692 26.5713 12.0692 25.4202 12.7792 24.7101L17.4787 20.0106L12.7739 15.3058Z" fill="white"/>
<path fill-rule="evenodd" clip-rule="evenodd" d="M40.0396 20C40.0396 31.0456 31.0852 40 20.0396 40C8.99392 40 0.0396118 31.0456 0.0396118 20C0.0396118 8.95431 8.99392 0 20.0396 0C31.0852 0 40.0396 8.95431 40.0396 20ZM3.68839 20C3.68839 29.0305 11.0091 36.3513 20.0396 36.3513C29.0702 36.3513 36.3909 29.0305 36.3909 20C36.3909 10.9695 29.0702 3.64878 20.0396 3.64878C11.0091 3.64878 3.68839 10.9695 3.68839 20Z" fill="white"/>
</svg>
