<svg width="61" height="47" viewBox="0 0 61 47" fill="none" xmlns="http://www.w3.org/2000/svg">
<path id="Vector" d="M51.1601 4.49026C47.2775 2.69101 43.1424 1.36524 38.7863 0.607666C38.2497 1.55464 37.6184 2.84884 37.208 3.89051C32.5994 3.19606 28.0224 3.19606 23.5085 3.89051C23.0666 2.84884 22.4353 1.55464 21.8987 0.607666C17.5426 1.36524 13.4075 2.69101 9.52488 4.49026C1.69656 16.2959 -0.418349 27.8175 0.623322 39.1496C5.83168 43.0322 10.8506 45.3681 15.8065 46.9148C17.0375 45.2418 18.1108 43.4425 19.0577 41.5802C17.2585 40.9173 15.5539 40.065 13.9441 39.0865C14.386 38.7708 14.7964 38.4236 15.2067 38.1079C25.0868 42.7165 35.7876 42.7165 45.5414 38.1079C45.9518 38.4551 46.3621 38.7708 46.804 39.0865C45.1942 40.065 43.4581 40.8857 41.6904 41.5802C42.6374 43.4425 43.7106 45.2418 44.9417 46.9148C49.8975 45.3681 54.948 43.0322 60.1248 39.1496C61.3559 25.9867 58.0099 14.5913 51.2233 4.49026H51.1601ZM20.3835 32.2051C17.4163 32.2051 14.9858 29.4589 14.9858 26.0814C14.9858 22.7038 17.3532 19.9576 20.3835 19.9576C23.4138 19.9576 25.8128 22.7038 25.7812 26.0814C25.7812 29.4273 23.4138 32.2051 20.3835 32.2051ZM40.3015 32.2051C37.3343 32.2051 34.9037 29.4589 34.9037 26.0814C34.9037 22.7038 37.2712 19.9576 40.3015 19.9576C43.3318 19.9576 45.7308 22.7038 45.6992 26.0814C45.6992 29.4273 43.3318 32.2051 40.3015 32.2051Z" fill="white"/>
</svg>
