<svg width="43" height="47" viewBox="0 0 43 47" fill="none" xmlns="http://www.w3.org/2000/svg">
<path d="M5.48832 4.7006C5.60963 2.55458 6.12226 1.62137 7.59232 0.871979C9.17409 0.0653934 11.6689 0.440754 14.6044 1.92729C15.8689 2.56787 15.9976 2.58092 18.2135 2.29681C21.1589 1.91904 24.9508 1.92037 27.6694 2.30027C29.7252 2.58756 29.8602 2.57321 31.1277 1.93129C35.2946 -0.178815 38.5844 -0.0407502 39.7756 2.29415C40.3702 3.4596 40.4806 6.48375 40.0196 8.978C39.7639 10.3608 39.791 10.5334 40.4069 11.4409C44.7396 17.8257 41.6177 28.1752 34.1933 32.0375C33.6252 32.3331 33.1464 32.516 32.7562 32.665C31.5581 33.1225 31.1944 33.2614 31.6348 35.3673C31.8469 36.3802 32.1023 38.8985 32.2027 40.9639C32.3842 44.6973 32.3814 44.7233 31.7267 45.485C30.8354 46.521 29.5508 46.5385 28.6804 45.5264C28.1127 44.8664 28.0573 44.5548 28.0573 42.0083C28.0573 38.2452 27.6448 35.7439 26.6702 33.6006C25.5112 31.05 26.3704 30.0989 29.0208 29.5289C32.7048 28.7364 35.5821 26.4629 37.1858 23.0773C38.7106 19.8589 38.9404 15.4115 36.1837 12.7066C35.3998 11.775 35.3452 10.9311 35.905 8.38663C36.1142 7.4356 36.2896 6.20869 36.2948 5.65987C36.3027 4.79317 36.2237 4.66229 35.6914 4.66229C35.3546 4.66229 34.0675 5.15231 32.8316 5.75112L30.8591 6.70717C30.6798 6.79406 30.4792 6.82748 30.2812 6.80477C25.2656 6.22906 20.4998 6.22017 15.4596 6.80702C15.2609 6.83015 15.0594 6.79673 14.8795 6.7094L12.908 5.75273C11.672 5.15283 10.385 4.66229 10.0483 4.66229C9.26959 4.66229 9.25788 5.23717 9.96763 8.65265C10.4012 10.7386 10.6929 11.2034 9.43959 12.8713C7.56092 15.3714 7.09165 18.4759 8.09909 21.7377C9.36882 25.8481 12.4781 28.625 16.8494 29.5514C19.4846 30.11 20.1733 30.8387 19.1671 33.8604C18.375 36.2383 17.8742 36.8512 16.723 36.8512C15.1743 36.8512 14.2041 35.5096 14.738 34.1056C14.9732 33.4869 14.9032 33.4208 13.4523 32.8916C9.02325 31.2769 5.63569 27.6575 4.0869 22.885C2.8898 19.1965 3.41653 14.3956 5.33696 11.4938C5.99084 10.5058 6.00096 10.422 5.69582 8.53054C5.52317 7.45981 5.4298 5.7365 5.48832 4.7006Z" fill="white"/>
<path d="M3.94174 31.6831C3.30351 30.7258 2.01003 30.467 1.05268 31.1054C0.0953446 31.7435 -0.163364 33.037 0.474866 33.9943C0.946053 34.7012 1.50974 35.2818 1.98843 35.7604C2.07668 35.8487 2.16243 35.9339 2.24616 36.017C2.64714 36.4154 3.00118 36.767 3.35676 37.1845C4.14324 38.1077 4.92785 39.351 5.37376 41.5806C5.57239 42.5737 6.28624 43.1087 6.68178 43.3424C7.11074 43.5958 7.57943 43.7452 7.96512 43.8424C8.75409 44.0414 9.71187 44.1447 10.6208 44.2049C11.6187 44.2712 12.6998 44.2927 13.6667 44.2985C13.6674 45.4483 14.5998 46.3804 15.75 46.3804C16.9006 46.3804 17.8333 45.4477 17.8333 44.297V42.2137C17.8333 41.0631 16.9006 40.1304 15.75 40.1304C15.5536 40.1304 15.3411 40.131 15.116 40.1318C13.8934 40.1356 12.2998 40.1404 10.8962 40.0474C10.2194 40.0027 9.66303 39.9391 9.25503 39.8614C8.62674 37.3949 7.61172 35.7539 6.52862 34.4824C6.04982 33.9206 5.55403 33.4289 5.15076 33.0289C5.07526 32.9541 5.00301 32.8824 4.9347 32.8141C4.46939 32.3489 4.16501 32.0181 3.94174 31.6831Z" fill="white"/>
</svg>
