<svg width="44" height="45" viewBox="0 0 44 45" fill="none" xmlns="http://www.w3.org/2000/svg">
<g clip-path="url(#clip0_163_99)">
<path d="M12.2451 2.8261C12.9771 1.94775 14.2825 1.82908 15.1608 2.56103C17.253 4.3045 18.0655 6.36279 17.6166 8.39366C17.2344 10.1228 16.0299 11.3557 15.091 12.0115C14.5043 12.5144 14.2597 12.9092 14.1587 13.155C14.0622 13.3895 14.0643 13.5616 14.0973 13.7106C14.1834 14.1002 14.5559 14.5649 14.9839 14.8502C15.9353 15.4844 16.1923 16.7698 15.5581 17.7211C14.9239 18.6724 13.6386 18.9295 12.6872 18.2953C11.7351 17.6605 10.4514 16.4 10.0544 14.6044C9.60546 12.5735 10.418 10.5152 12.5102 8.77171L12.5951 8.70089L12.6871 8.63957C13.1152 8.3542 13.4876 7.88959 13.5738 7.5C13.6067 7.35097 13.6088 7.17891 13.5123 6.94433C13.4073 6.68899 13.1475 6.27289 12.5102 5.74181C11.6318 5.00984 11.5132 3.70445 12.2451 2.8261ZM25.087 8.34669C25.819 9.22504 25.7003 10.5304 24.8219 11.2624C24.1846 11.7935 23.9248 12.2096 23.8198 12.4649C23.7233 12.6995 23.7254 12.8715 23.7584 13.0206C23.8445 13.4102 24.217 13.8748 24.645 14.1601C25.5963 14.7944 25.8534 16.0797 25.2191 17.031C24.5849 17.9824 23.2996 18.2394 22.3483 17.6052C21.3961 16.9704 20.1124 15.7099 19.7155 13.9143C19.2666 11.8834 20.0791 9.82509 22.1713 8.08162C23.0496 7.34965 24.3551 7.46834 25.087 8.34669ZM0.571979 21.5912C0.802377 20.6696 1.63043 20.0231 2.58039 20.0231H34.3649C35.3151 20.0231 36.1431 20.6696 36.3735 21.5912C36.6727 22.7888 36.7489 24.3167 36.5867 26.0268H41.6552C42.7986 26.0268 43.7254 26.9536 43.7254 28.097C43.7254 30.1288 43.6019 33.4197 41.5336 36.1768C39.497 38.8916 35.9514 40.6371 30.2787 40.8238C29.5376 41.7533 28.7214 42.6721 27.8241 43.5694C27.4358 43.9577 26.9093 44.1758 26.3602 44.1758H10.5853C10.0362 44.1758 9.50962 43.9577 9.12137 43.5694C5.13706 39.5849 2.7502 35.1822 1.47882 31.2719C0.229277 27.4291 0.00078645 23.876 0.571979 21.5912ZM25.4853 40.0354C26.2611 39.2131 26.9603 38.3755 27.5889 37.5326C30.1541 34.0929 31.5437 30.5668 32.1506 27.6721C32.4408 26.2886 32.5422 25.0994 32.5285 24.1636H4.417C4.39594 25.6103 4.65051 27.6364 5.41635 29.9918C6.43935 33.1378 8.32789 36.7153 11.4601 40.0354H25.4853ZM33.2575 36.3581C36.0169 35.8213 37.4394 34.7345 38.2215 33.6922C38.9921 32.6651 39.3372 31.4402 39.4841 30.1673H35.8004C35.2546 32.122 34.4285 34.226 33.2575 36.3581Z" fill="white"/>
</g>
<defs>
<clipPath id="clip0_163_99">
<rect width="44" height="44" fill="white" transform="translate(0 0.706238)"/>
</clipPath>
</defs>
</svg>
