<svg width="209" height="57" viewBox="0 0 209 57" fill="none" xmlns="http://www.w3.org/2000/svg">
<g clip-path="url(#clip0_122_49)">
<path d="M88.4798 40.968H69.9634V16.4141H88.3382V20.904H74.9023V26.3409H87.7186V30.8307H74.9023V36.4781H88.4798V40.968ZM105.598 28.0421H99.3849V34.2507C99.3849 35.2446 99.6211 35.9754 100.093 36.443C100.565 36.9108 101.185 37.1446 101.952 37.1446C102.872 37.1446 103.946 36.7763 105.173 36.0397L106.873 39.6175C105.138 40.8101 103.244 41.4064 101.19 41.4064C99.0662 41.4064 97.4614 40.8335 96.3755 39.6877C95.3018 38.5301 94.7646 36.8406 94.7646 34.619V28.0421H91.4543V23.9732H94.7646V18.9221H99.3849V23.9732H105.598V28.0421ZM117.085 23.5172C119.551 23.5172 121.558 24.3474 123.104 26.0077C124.65 27.6563 125.422 29.8018 125.422 32.4443C125.422 33.0289 125.393 33.5434 125.334 33.9877H113.173C113.397 35.1686 113.898 36.0514 114.677 36.636C115.468 37.2206 116.436 37.5129 117.58 37.5129C119.174 37.5129 120.62 36.9692 121.917 35.8818L124.626 38.8283C122.714 40.547 120.277 41.4064 117.315 41.4064C114.683 41.4064 112.541 40.588 110.889 38.951C109.237 37.3142 108.411 35.1686 108.411 32.5144C108.411 29.8486 109.213 27.6855 110.818 26.0252C112.424 24.3532 114.512 23.5172 117.085 23.5172ZM117.049 27.4633C115.976 27.4633 115.114 27.7615 114.465 28.3578C113.828 28.9424 113.403 29.7784 113.19 30.8658H120.785C120.572 29.7668 120.147 28.9249 119.51 28.3403C118.873 27.7557 118.053 27.4633 117.049 27.4633ZM138.492 23.5172C139.412 23.5172 140.215 23.64 140.899 23.8855L140.209 28.428C139.383 28.0655 138.451 27.8843 137.412 27.8843C136.314 27.8843 135.435 28.2175 134.774 28.884C134.125 29.5388 133.801 30.48 133.801 31.7077V40.968H129.18V23.9732H133.659V25.8323C134.698 24.2889 136.309 23.5172 138.492 23.5172ZM153.589 23.5172C155.548 23.5172 157.147 24.131 158.386 25.3587C159.637 26.5864 160.262 28.1824 160.262 30.1467V40.968H155.642V31.62C155.642 30.3923 155.353 29.4511 154.775 28.7963C154.197 28.1415 153.371 27.8141 152.297 27.8141C151.247 27.8141 150.379 28.1473 149.694 28.8138C149.01 29.4686 148.668 30.4157 148.668 31.655V40.968H144.047V23.9732H148.544V25.9726C149.653 24.3357 151.335 23.5172 153.589 23.5172ZM169.585 40.968H164.965V23.9732H169.585V40.968ZM165.16 16.3264C165.726 15.7535 166.423 15.467 167.249 15.467C168.075 15.467 168.771 15.7535 169.338 16.3264C169.916 16.8994 170.205 17.5951 170.205 18.4135C170.205 19.232 169.916 19.9218 169.338 20.483C168.771 21.0443 168.075 21.3249 167.249 21.3249C166.423 21.3249 165.726 21.0443 165.16 20.483C164.593 19.9218 164.31 19.232 164.31 18.4135C164.31 17.5834 164.593 16.8877 165.16 16.3264ZM186.883 28.0421H180.67V34.2507C180.67 35.2446 180.906 35.9754 181.378 36.443C181.85 36.9108 182.469 37.1446 183.237 37.1446C184.157 37.1446 185.231 36.7763 186.458 36.0397L188.158 39.6175C186.423 40.8101 184.529 41.4064 182.475 41.4064C180.351 41.4064 178.746 40.8335 177.66 39.6877C176.587 38.5301 176.049 36.8406 176.049 34.619V28.0421H172.739V23.9732H176.049V18.9221H180.67V23.9732H186.883V28.0421ZM195.301 48.0535H190.238L196.239 37.355L188.839 23.9732H194.079L198.788 32.7073L203.355 23.9732H208.418L195.301 48.0535Z" fill="white"/>
<path d="M26.6037 1.6507C28.637 0.816301 30.9215 0.816306 32.9547 1.6507L46.7905 7.32869C48.8237 8.16308 50.4391 9.76352 51.2813 11.7779L57.0123 25.4858C57.8542 27.5002 57.8542 29.7636 57.0123 31.778L51.2813 45.4859C50.4391 47.5003 48.8237 49.1008 46.7905 49.9351L32.9547 55.6133C30.9215 56.4475 28.637 56.4475 26.6037 55.6133L12.7679 49.9351C10.7347 49.1008 9.11935 47.5003 8.27717 45.4859L2.54619 31.778C1.704 29.7636 1.704 27.5002 2.54619 25.4858L8.27717 11.7779C9.11935 9.76352 10.7347 8.16308 12.7679 7.32869L26.6037 1.6507Z" fill="white"/>
<path d="M18.7907 19.209C18.3351 18.2741 19.3245 17.2938 20.2681 17.7452L29.1293 21.9847C29.4198 22.1237 29.757 22.1301 30.0527 22.0024L38.8523 18.2002C39.7741 17.802 40.7107 18.73 40.3088 19.6432L36.4712 28.3615C36.3422 28.6544 36.3487 28.9885 36.489 29.2763L40.768 38.0555C41.2236 38.9905 40.2342 39.9707 39.2906 39.5193L30.4294 35.2799C30.139 35.1409 29.8017 35.1345 29.506 35.2622L20.7064 39.0643C19.7846 39.4626 18.848 38.5346 19.25 37.6214L23.0876 28.9031C23.2165 28.6101 23.21 28.276 23.0697 27.9882L18.7907 19.209Z" fill="url(#paint0_linear_122_49)"/>
</g>
<defs>
<linearGradient id="paint0_linear_122_49" x1="17.4111" y1="16.3783" x2="41.9179" y2="41.1138" gradientUnits="userSpaceOnUse">
<stop stop-color="#00D1FF"/>
<stop offset="1" stop-color="#FF00D6"/>
</linearGradient>
<clipPath id="clip0_122_49">
<rect width="208" height="57" fill="white" transform="translate(0.933594)"/>
</clipPath>
</defs>
</svg>
