<svg width="183" height="38" viewBox="0 0 183 38" fill="none" xmlns="http://www.w3.org/2000/svg">
<g clip-path="url(#clip0_145_30)">
<path d="M61.8841 30.4242H43.2661V5.30907H61.7417V9.90152H48.2321V15.4627H61.1187V20.0552H48.2321V25.8317H61.8841V30.4242ZM79.0966 17.2029H72.849V23.5534C72.849 24.57 73.0865 25.3175 73.561 25.7958C74.036 26.2742 74.659 26.5134 75.4299 26.5134C76.3555 26.5134 77.4357 26.1367 78.6694 25.3832L80.3782 29.0429C78.6338 30.2627 76.7293 30.8727 74.6646 30.8727C72.5286 30.8727 70.915 30.2867 69.8231 29.1146C68.7435 27.9306 68.2034 26.2025 68.2034 23.9301V17.2029H64.8749V13.0409H68.2034V7.87437H72.849V13.0409H79.0966V17.2029ZM90.6462 12.5745C93.1264 12.5745 95.1439 13.4236 96.698 15.1219C98.2527 16.8082 99.0297 19.0028 99.0297 21.7056C99.0297 22.3036 99.0002 22.8299 98.9407 23.2843H86.7125C86.9384 24.4922 87.4423 25.3952 88.2255 25.9932C89.0209 26.5912 89.9937 26.8901 91.1446 26.8901C92.7465 26.8901 94.2005 26.334 95.5054 25.2218L98.2287 28.2356C96.3064 29.9936 93.8562 30.8727 90.8776 30.8727C88.2316 30.8727 86.0779 30.0355 84.4164 28.3612C82.7555 26.6869 81.9245 24.4922 81.9245 21.7774C81.9245 19.0506 82.7316 16.8381 84.3452 15.1398C85.9594 13.4296 88.0597 12.5745 90.6462 12.5745ZM90.6106 16.6109C89.531 16.6109 88.6649 16.9158 88.0119 17.5258C87.3711 18.1238 86.9439 18.9789 86.7303 20.0911H94.3663C94.1527 18.9669 93.7255 18.1058 93.0847 17.5078C92.4439 16.9099 91.6196 16.6109 90.6106 16.6109ZM112.171 12.5745C113.096 12.5745 113.903 12.7001 114.591 12.9512L113.897 17.5975C113.067 17.2268 112.13 17.0414 111.085 17.0414C109.981 17.0414 109.098 17.3822 108.433 18.0639C107.78 18.7337 107.454 19.6964 107.454 20.9522V30.4242H102.808V13.0409H107.311V14.9425C108.356 13.3638 109.976 12.5745 112.171 12.5745ZM127.351 12.5745C129.321 12.5745 130.928 13.2024 132.174 14.4581C133.433 15.7139 134.061 17.3464 134.061 19.3556V30.4242H129.415V20.8625C129.415 19.6067 129.125 18.644 128.543 17.9742C127.962 17.3045 127.132 16.9696 126.051 16.9696C124.996 16.9696 124.124 17.3105 123.435 17.9922C122.747 18.6619 122.403 19.6307 122.403 20.8984V30.4242H117.757V13.0409H122.278V15.086C123.394 13.4117 125.085 12.5745 127.351 12.5745ZM143.435 30.4242H138.79V13.0409H143.435V30.4242ZM138.985 5.21937C139.555 4.63334 140.255 4.34033 141.086 4.34033C141.916 4.34033 142.617 4.63334 143.186 5.21937C143.767 5.80539 144.058 6.51697 144.058 7.35413C144.058 8.19134 143.767 8.89692 143.186 9.47098C142.617 10.045 141.916 10.3321 141.086 10.3321C140.255 10.3321 139.555 10.045 138.985 9.47098C138.416 8.89692 138.131 8.19134 138.131 7.35413C138.131 6.50503 138.416 5.79343 138.985 5.21937ZM160.828 17.2029H154.581V23.5534C154.581 24.57 154.818 25.3175 155.292 25.7958C155.767 26.2742 156.39 26.5134 157.161 26.5134C158.087 26.5134 159.167 26.1367 160.401 25.3832L162.11 29.0429C160.365 30.2627 158.461 30.8727 156.396 30.8727C154.26 30.8727 152.647 30.2867 151.555 29.1146C150.475 27.9306 149.935 26.2025 149.935 23.9301V17.2029H146.606V13.0409H149.935V7.87437H154.581V13.0409H160.828V17.2029ZM169.292 37.6717H164.201L170.235 26.7287L162.795 13.0409H168.064L172.798 21.9747L177.39 13.0409H182.481L169.292 37.6717Z" fill="white"/>
<path d="M13.8041 1.62025C14.914 1.15685 16.1611 1.15686 17.271 1.62025L24.8237 4.77368C25.9336 5.23708 26.8155 6.12592 27.2752 7.24465L30.4037 14.8577C30.8633 15.9764 30.8633 17.2334 30.4037 18.3522L27.2752 25.9652C26.8155 27.0839 25.9336 27.9728 24.8237 28.4362L17.271 31.5896C16.1611 32.0529 14.914 32.0529 13.8041 31.5896L6.25135 28.4362C5.14146 27.9728 4.25965 27.0839 3.79991 25.9652L0.67146 18.3522C0.211727 17.2334 0.211727 15.9764 0.67146 14.8577L3.79991 7.24465C4.25965 6.12592 5.14146 5.23708 6.25135 4.77368L13.8041 1.62025Z" fill="white"/>
<path d="M9.53854 11.3713C9.28984 10.8521 9.82994 10.3076 10.3451 10.5584L15.1822 12.9128C15.3408 12.99 15.5249 12.9936 15.6863 12.9226L20.4899 10.811C20.9931 10.5899 21.5043 11.1052 21.2849 11.6124L19.19 16.4543C19.1197 16.617 19.1232 16.8026 19.1998 16.9624L21.5356 21.8381C21.7844 22.3574 21.2443 22.9018 20.7291 22.6511L15.892 20.2966C15.7334 20.2194 15.5493 20.2159 15.3879 20.2868L10.5843 22.3984C10.0811 22.6196 9.5698 22.1042 9.78929 21.597L11.8842 16.7551C11.9545 16.5924 11.951 16.4068 11.8744 16.247L9.53854 11.3713Z" fill="#121212"/>
</g>
<defs>
<clipPath id="clip0_145_30">
<rect width="183" height="37" fill="white" transform="translate(0 0.809082)"/>
</clipPath>
</defs>
</svg>
