<svg width="62" height="18" viewBox="0 0 62 18" fill="none" xmlns="http://www.w3.org/2000/svg">
<path fill-rule="evenodd" clip-rule="evenodd" d="M15.7143 9C15.7143 5.1339 12.5803 2 8.71429 2C4.8483 2 1.71429 5.1339 1.71429 9C1.71429 12.8661 4.8483 16 8.71429 16C10.5708 16 12.3513 15.2625 13.664 13.9497C14.9768 12.6368 15.7143 10.8564 15.7143 9Z" stroke="white" stroke-width="3" stroke-linecap="round" stroke-linejoin="round"/>
<path fill-rule="evenodd" clip-rule="evenodd" d="M37.7143 9C37.7143 5.1339 34.5804 2 30.7143 2C26.8482 2 23.7143 5.1339 23.7143 9C23.7143 12.8661 26.8482 16 30.7143 16C34.5804 16 37.7143 12.8661 37.7143 9Z" stroke="white" stroke-width="3" stroke-linecap="round" stroke-linejoin="round"/>
<path fill-rule="evenodd" clip-rule="evenodd" d="M59.7143 9C59.7143 5.1339 56.3565 2 52.2143 2C48.072 2 44.7143 5.1339 44.7143 9C44.7143 12.8661 48.072 16 52.2143 16C56.3565 16 59.7143 12.8661 59.7143 9Z" stroke="white" stroke-width="3" stroke-linecap="round" stroke-linejoin="round"/>
</svg>
