<svg width="61" height="61" viewBox="0 0 61 61" fill="none" xmlns="http://www.w3.org/2000/svg">
<path id="Vector" d="M30.688 0.76123C24.7547 0.76123 18.9543 2.52069 14.0209 5.81713C9.08742 9.11356 5.24225 13.7989 2.97162 19.2807C0.700999 24.7623 0.106885 30.7946 1.26444 36.6138C2.42199 42.4334 5.27922 47.7787 9.4748 51.9746C13.6704 56.1701 19.0158 59.0272 24.8354 60.1848C30.6546 61.3424 36.6869 60.7481 42.1686 58.4774C47.6504 56.2068 52.3356 52.3619 55.6322 47.4284C58.9285 42.4949 60.688 36.6948 60.688 30.7612C60.688 22.8047 57.5271 15.1741 51.9014 9.54804C46.2752 3.92192 38.6444 0.76123 30.688 0.76123ZM45.4255 21.3112L40.513 44.5237C40.138 46.1737 39.163 46.5487 37.7755 45.7987L30.2755 40.2487L26.5255 43.7362C26.3489 43.9668 26.122 44.1543 25.8621 44.2844C25.6022 44.4142 25.3161 44.4832 25.0255 44.4862L25.5505 36.9862L39.4255 24.4237C40.063 23.8987 39.4255 23.5987 38.5255 24.1237L21.5005 34.8112L14.0005 32.4862C12.388 31.9987 12.3505 30.8737 14.338 30.1237L43.2505 18.8737C44.6755 18.4612 45.8755 19.2862 45.4255 21.3112Z" fill="white"/>
</svg>
