<svg width="50" height="51" viewBox="0 0 50 51" fill="none" xmlns="http://www.w3.org/2000/svg">
<path id="Vector" d="M25 0.304077C20.0556 0.304077 15.222 1.77029 11.1107 4.51732C6.99953 7.26435 3.79522 11.1688 1.90303 15.737C0.0108423 20.305 -0.484252 25.3319 0.480373 30.1812C1.445 35.0309 3.82603 39.4853 7.32234 42.9819C10.8187 46.4781 15.2732 48.859 20.1228 49.8237C24.9722 50.7884 29.9991 50.2931 34.5672 48.4009C39.1353 46.5087 43.0397 43.3047 45.7869 39.1934C48.5338 35.0822 50 30.2487 50 25.3041C50 18.6737 47.3659 12.3148 42.6778 7.62641C37.9894 2.93798 31.6303 0.304077 25 0.304077ZM37.2812 17.4291L33.1875 36.7728C32.875 38.1478 32.0625 38.4603 30.9062 37.8353L24.6563 33.2103L21.5313 36.1165C21.3841 36.3087 21.195 36.465 20.9784 36.5734C20.7619 36.6815 20.5234 36.739 20.2812 36.7415L20.7188 30.4915L32.2812 20.0228C32.8125 19.5853 32.2812 19.3353 31.5312 19.7728L17.3438 28.6791L11.0937 26.7416C9.75 26.3353 9.71875 25.3978 11.375 24.7728L35.4688 15.3978C36.6562 15.0541 37.6562 15.7416 37.2812 17.4291Z" fill="white"/>
</svg>
