<svg width="60" height="61" viewBox="0 0 60 61" fill="none" xmlns="http://www.w3.org/2000/svg">
<rect width="60" height="61" fill="#1E1E1E"/>
<g id="Frame 17" clip-path="url(#clip0_0_1)">
<rect width="1920" height="2700" transform="translate(-450 -1445)" fill="#121212"/>
<rect id="Rectangle 36" x="-20" y="-19.2388" width="100" height="100" rx="30" fill="#4C75A3"/>
<path id="Vector" d="M48.4385 43.5701H44.0792C42.4287 43.5701 41.9186 42.2577 38.9537 39.2528C36.3709 36.752 35.2286 36.4159 34.5944 36.4159C33.7041 36.4159 33.45 36.67 33.45 37.8984V41.8356C33.45 42.8959 33.1119 43.5301 30.3171 43.5301C24.6794 43.1519 19.8339 40.077 17.0211 35.5957L16.9791 35.5257C13.7141 31.4704 11.3074 26.583 10.117 21.2374L10.073 21.0033C10.073 20.3691 10.3271 19.7749 11.5555 19.7749H15.9148C17.0151 19.7749 17.4392 20.2831 17.8654 21.4674C20.022 27.6933 23.6231 33.1549 25.1055 33.1549C25.6557 33.1549 25.9098 32.9009 25.9098 31.5045V25.0645C25.7397 22.0996 24.1733 21.8476 24.1733 20.7892C24.1913 20.2231 24.6554 19.7709 25.2236 19.7709C25.2416 19.7709 25.2576 19.7709 25.2756 19.7729H25.2736H32.1336C33.0659 19.7729 33.404 20.2811 33.404 21.3814V30.064C33.404 30.9943 33.8281 31.3344 34.0822 31.3344C34.6324 31.3344 35.1005 30.9943 36.1148 29.98C38.2235 27.4052 40.026 24.4603 41.4004 21.2854L41.4924 21.0453C41.7825 20.3191 42.4787 19.8149 43.293 19.8149C43.331 19.8149 43.367 19.8169 43.405 19.8189H43.399H47.7583C49.0707 19.8189 49.3688 20.4931 49.0707 21.4274C47.3222 25.2786 45.3576 28.5876 43.0809 31.6525L43.185 31.5045C42.7208 32.2667 42.5508 32.6048 43.185 33.455C43.6491 34.0892 45.1756 35.4016 46.1919 36.588C47.6623 38.0424 48.8947 39.7349 49.8249 41.6035L49.875 41.7135C50.2991 42.9379 49.6629 43.5741 48.4345 43.5741L48.4385 43.5701ZM39.2098 0.76123H20.7902C3.97919 0.76123 0 4.74042 0 21.5515V39.971C0 56.782 3.97919 60.7612 20.7902 60.7612H39.2098C56.0208 60.7612 60 56.782 60 39.971V21.5515C60 4.74042 55.9768 0.76123 39.2098 0.76123Z" fill="white"/>
</g>
<defs>
<clipPath id="clip0_0_1">
<rect width="1920" height="2700" fill="white" transform="translate(-450 -1445)"/>
</clipPath>
</defs>
</svg>
