<svg width="50" height="51" viewBox="0 0 50 51" fill="none" xmlns="http://www.w3.org/2000/svg">
<path id="Vector" d="M40.3654 36.0844H36.7327C35.3573 36.0844 34.9321 34.9908 32.4614 32.4867C30.3091 30.4027 29.3571 30.1226 28.8286 30.1226C28.0868 30.1226 27.875 30.3344 27.875 31.358V34.639C27.875 35.5226 27.5933 36.0511 25.2642 36.0511C20.5662 35.736 16.5283 33.1736 14.1843 29.4391L14.1492 29.3808C11.4284 26.0014 9.42283 21.9285 8.43086 17.4739L8.39418 17.2788C8.39418 16.7503 8.60591 16.2552 9.62955 16.2552H13.2623C14.1793 16.2552 14.5327 16.6786 14.8878 17.6656C16.685 22.8538 19.6859 27.4052 20.9213 27.4052C21.3797 27.4052 21.5915 27.1934 21.5915 26.0298V20.6631C21.4498 18.1924 20.1444 17.9823 20.1444 17.1004C20.1594 16.6286 20.5462 16.2518 21.0196 16.2518C21.0346 16.2518 21.048 16.2518 21.063 16.2535H21.0613H26.778C27.5549 16.2535 27.8367 16.6769 27.8367 17.5939V24.8294C27.8367 25.6046 28.1901 25.888 28.4019 25.888C28.8603 25.888 29.2504 25.6046 30.0957 24.7594C31.8529 22.6137 33.355 20.1597 34.5003 17.5139L34.577 17.3138C34.8188 16.7086 35.399 16.2885 36.0775 16.2885C36.1092 16.2885 36.1392 16.2902 36.1708 16.2918H36.1658H39.7986C40.8923 16.2918 41.1407 16.8537 40.8923 17.6322C39.4352 20.8415 37.798 23.599 35.9008 26.1531L35.9875 26.0298C35.6007 26.6649 35.459 26.9467 35.9875 27.6552C36.3742 28.1837 37.6463 29.2774 38.4932 30.266C39.7186 31.4781 40.7456 32.8885 41.5208 34.4456L41.5625 34.5373C41.9159 35.5576 41.3857 36.0878 40.3621 36.0878L40.3654 36.0844ZM32.6748 0.4104H17.3252C3.316 0.4104 0 3.7264 0 17.7356V33.0852C0 47.0944 3.316 50.4104 17.3252 50.4104H32.6748C46.684 50.4104 50 47.0944 50 33.0852V17.7356C50 3.7264 46.6473 0.4104 32.6748 0.4104Z" fill="white"/>
</svg>
