<svg width="66" height="68" viewBox="0 0 66 68" fill="none" xmlns="http://www.w3.org/2000/svg">
<path d="M11 33.8807H55M28.875 15.7349V52.0266M11 47.8V19.9615C10.9998 19.5621 11.1402 19.1758 11.3959 18.8723C11.6515 18.5688 12.0056 18.3679 12.3943 18.306L53.0942 11.8489C53.3297 11.8114 53.5704 11.8261 53.7998 11.8921C54.0291 11.9581 54.2417 12.0737 54.4228 12.231C54.6039 12.3883 54.7493 12.5836 54.8489 12.8034C54.9485 13.0233 55.0001 13.2624 55 13.5044V54.2571C55.0001 54.4991 54.9485 54.7382 54.8489 54.958C54.7493 55.1779 54.6039 55.3732 54.4228 55.5305C54.2417 55.6878 54.0291 55.8034 53.7998 55.8694C53.5704 55.9353 53.3297 55.9501 53.0942 55.9126L12.3943 49.4554C12.0056 49.3935 11.6515 49.1927 11.3959 48.8892C11.1402 48.5856 10.9998 48.1993 11 47.8Z" stroke="white" stroke-width="4"/>
</svg>
